{"glyphs":{"0":{"ha":1619,"x_min":0,"x_max":0,"o":"m 1633 592 b 915 1054 1633 797 1522 1054 l 847 1054 b 42 557 218 1054 75 781 b 35 450 36 519 35 481 b 750 -21 35 235 164 -21 l 819 -21 b 1625 478 1457 -21 1589 260 b 1633 592 1632 519 1633 560 z m 1100 551 b 1096 501 1100 538 1099 518 b 814 311 1081 408 1008 311 b 567 492 636 311 567 403 b 571 544 567 513 568 528 b 851 725 586 626 654 725 b 1100 551 1035 725 1100 638 z "},"1":{"ha":833,"x_min":0,"x_max":0,"o":"m 307 554 l 219 0 l 733 0 l 897 1033 l 465 1033 b 86 810 399 896 279 821 l 46 554 z "},"2":{"ha":1464,"x_min":0,"x_max":0,"o":"m 593 663 b 793 779 597 689 607 779 b 946 728 924 779 946 757 b 811 665 946 703 939 688 b 653 636 772 658 701 646 b -21 131 57 515 4 292 l -42 0 l 1381 0 l 1443 390 l 996 390 l 979 289 l 442 289 b 724 383 443 324 501 354 l 894 406 b 1485 751 1339 464 1485 533 b 828 1054 1485 914 1357 1054 l 763 1054 b 76 671 171 1054 103 829 l 75 663 z "},"3":{"ha":1536,"x_min":0,"x_max":0,"o":"m 760 -21 b 1526 374 1449 -21 1526 221 b 1311 604 1526 513 1421 578 b 1553 801 1424 619 1553 669 b 843 1054 1553 935 1444 1054 l 779 1054 b 63 689 163 1054 86 833 l 61 681 l 579 681 b 807 771 582 697 601 771 b 1008 715 982 771 1008 747 b 917 665 1008 686 986 665 l 614 665 l 572 404 l 872 404 b 957 353 932 404 957 389 b 729 278 957 315 933 278 b 525 389 524 278 525 368 l 4 389 l 3 376 b 690 -21 -15 228 49 -21 z "},"4":{"ha":1517,"x_min":0,"x_max":0,"o":"m 25 443 l -18 165 l 731 165 l 704 0 l 1222 0 l 1249 165 l 1469 165 l 1519 483 l 1299 483 l 1388 1040 l 810 1040 z m 781 483 l 471 483 l 825 756 z "},"5":{"ha":1444,"x_min":0,"x_max":0,"o":"m 739 -21 b 1425 311 1282 -21 1392 151 b 1435 396 1431 339 1435 368 b 985 710 1435 556 1358 710 l 975 710 b 596 626 731 710 621 643 l 617 763 l 1418 763 l 1461 1033 l 143 1033 l 40 389 l 554 389 b 743 467 557 404 586 467 b 901 374 857 467 901 431 b 721 267 901 318 865 267 b 546 339 558 267 547 326 l 19 339 l 18 331 b 671 -21 3 240 1 -21 z "},"6":{"ha":1542,"x_min":0,"x_max":0,"o":"m 1536 710 l 1536 717 b 881 1054 1536 851 1458 1054 l 817 1054 b 39 526 157 1054 57 700 b 35 436 36 499 35 475 b 731 -21 35 208 168 -21 l 794 -21 b 1526 321 1422 -21 1506 186 b 1532 394 1531 349 1532 369 b 1018 671 1532 560 1408 671 l 1001 671 b 588 578 725 671 613 596 b 850 778 607 674 671 778 b 1021 710 982 778 1013 726 z m 574 335 b 797 426 574 374 594 426 b 994 354 953 426 994 393 b 775 260 994 314 975 260 b 574 335 614 260 574 294 z "},"7":{"ha":1413,"x_min":0,"x_max":0,"o":"m 944 0 b 1178 490 957 168 1022 317 b 1457 776 1289 614 1408 728 l 1497 1033 l 132 1033 l 56 550 l 529 550 l 557 726 l 1004 726 b 679 488 1001 700 810 576 b 399 108 467 340 421 247 l 381 0 z "},"8":{"ha":1521,"x_min":0,"x_max":0,"o":"m 1551 776 b 863 1054 1551 925 1447 1054 l 804 1054 b 96 763 136 1054 96 882 b 326 547 96 650 188 574 b 6 285 167 525 6 453 b 711 -21 6 108 132 -21 l 767 -21 b 1506 301 1453 -21 1506 188 b 1254 547 1506 421 1443 510 b 1551 776 1436 565 1551 650 z m 810 665 b 628 724 664 665 628 686 b 824 789 628 756 639 789 b 1006 731 972 789 1006 765 b 810 665 1006 700 989 665 z m 750 264 b 550 329 594 264 550 293 b 769 407 550 369 572 407 b 975 340 932 407 975 378 b 750 264 975 304 947 264 z "},"9":{"ha":1538,"x_min":0,"x_max":0,"o":"m 1013 699 b 789 607 1013 660 992 607 b 593 679 635 607 593 640 b 811 774 593 719 613 774 b 1013 699 972 774 1013 739 z m 50 324 l 50 317 b 715 -21 50 182 129 -21 l 779 -21 b 1547 511 1431 -21 1531 339 b 1551 606 1550 540 1551 565 b 840 1054 1551 833 1400 1054 l 776 1054 b 60 732 181 1054 78 868 b 56 663 57 711 56 688 b 582 361 56 490 175 361 l 599 361 b 999 456 869 361 974 438 b 738 256 979 360 915 256 b 565 324 604 256 575 307 z "}," ":{"ha":404,"x_min":0,"x_max":0,"o":""},"!":{"ha":667,"x_min":0,"x_max":0,"o":"m 103 1033 l 179 369 l 486 369 l 774 1033 z m 567 322 l 82 322 l 31 0 l 517 0 z "},"\"":{"ha":868,"x_min":0,"x_max":0,"o":"m 944 1033 l 561 1033 l 497 629 l 881 629 z m 517 1033 l 133 1033 l 69 629 l 453 629 z "},"'":{"ha":440,"x_min":0,"x_max":0,"o":"m 517 1033 l 133 1033 l 69 629 l 453 629 z "},",":{"ha":543,"x_min":0,"x_max":0,"o":"m 322 -187 b 464 61 374 -135 450 -28 l 506 322 l 22 322 l -29 0 l 168 0 b 68 -187 154 -54 106 -140 z "},"-":{"ha":525,"x_min":0,"x_max":0,"o":"m 60 561 l 13 264 l 479 264 l 526 561 z "},".":{"ha":543,"x_min":0,"x_max":0,"o":"m 506 322 l 22 322 l -29 0 l 454 0 z "},"?":{"ha":1388,"x_min":0,"x_max":0,"o":"m 871 368 b 956 432 879 410 897 421 l 1140 463 b 1433 758 1354 499 1433 618 b 808 1051 1433 908 1354 1051 l 742 1051 b 63 706 160 1051 82 863 l 60 683 l 553 683 b 767 782 561 724 575 782 b 925 736 913 782 925 761 b 817 685 925 710 900 700 l 617 650 b 399 439 438 619 417 543 l 386 368 z m 865 322 l 379 322 l 328 0 l 815 0 z "},"A":{"ha":1656,"x_min":0,"x_max":0,"o":"m 925 429 l 681 429 l 844 718 z m 1046 0 l 1619 0 l 1269 1033 l 546 1033 l -83 0 l 436 0 l 507 124 l 1011 124 z "},"B":{"ha":1592,"x_min":0,"x_max":0,"o":"m -22 0 l 1100 0 b 1579 343 1489 0 1579 175 b 1357 588 1579 503 1454 565 b 1592 807 1454 603 1592 669 b 1240 1033 1592 939 1508 1033 l 142 1033 z m 963 665 l 599 665 l 614 765 l 969 765 b 1056 721 1029 765 1056 756 b 963 665 1056 686 1035 665 z m 917 278 l 538 278 l 557 406 l 933 406 b 1035 350 1017 406 1035 381 b 917 278 1035 318 1019 278 z "},"C":{"ha":1618,"x_min":0,"x_max":0,"o":"m 829 -21 b 1613 435 1526 -21 1590 294 l 1615 453 l 1093 453 b 817 311 1085 428 1050 311 b 568 485 621 311 568 393 b 575 547 568 504 571 526 b 871 725 589 617 636 725 b 1118 594 1099 725 1117 618 l 1638 594 l 1642 621 b 914 1054 1663 751 1607 1054 l 867 1054 b 44 569 189 1054 75 767 b 36 450 40 543 36 497 b 782 -21 36 211 167 -21 z "},"D":{"ha":1618,"x_min":0,"x_max":0,"o":"m -22 0 l 833 0 b 1626 481 1453 0 1597 242 b 1632 585 1631 518 1632 554 b 910 1033 1632 835 1457 1033 l 142 1033 z m 606 713 l 808 713 b 1094 551 1058 713 1094 619 b 1089 500 1094 538 1093 519 b 751 319 1076 447 1033 319 l 543 319 z "},"E":{"ha":1281,"x_min":0,"x_max":0,"o":"m 142 1033 l -22 0 l 1196 0 l 1242 292 l 532 292 l 546 381 l 1242 381 l 1288 664 l 592 664 l 604 744 l 1307 744 l 1353 1033 z "},"F":{"ha":1254,"x_min":0,"x_max":0,"o":"m 142 1033 l -22 0 l 485 0 l 544 374 l 1217 374 l 1263 661 l 589 661 l 603 744 l 1285 744 l 1331 1033 z "},"G":{"ha":1664,"x_min":0,"x_max":0,"o":"m 736 -21 b 1199 108 1039 -21 1165 81 b 1246 0 1219 82 1240 29 l 1567 0 l 1661 588 l 843 588 l 810 376 l 1085 376 b 826 285 1078 347 1015 285 b 572 475 640 285 572 369 b 578 535 572 493 574 511 b 879 742 597 644 678 742 b 1142 643 1099 742 1132 667 l 1665 643 b 903 1054 1674 803 1611 1054 l 858 1054 b 44 563 239 1054 83 808 b 36 449 39 528 36 485 b 703 -21 36 231 160 -21 z "},"H":{"ha":1632,"x_min":0,"x_max":0,"o":"m -22 0 l 493 0 l 551 368 l 1078 368 l 1019 0 l 1535 0 l 1699 1033 l 1183 1033 l 1129 690 l 603 690 l 657 1033 l 142 1033 z "},"I":{"ha":590,"x_min":0,"x_max":0,"o":"m 657 1033 l 142 1033 l -22 0 l 493 0 z "},"J":{"ha":1411,"x_min":0,"x_max":0,"o":"m 601 -15 l 701 -15 b 1403 535 1303 -15 1367 307 l 1482 1033 l 965 1033 l 888 543 b 678 356 874 456 836 356 l 676 356 b 513 494 518 356 513 451 l 25 494 l 22 476 b 601 -15 1 344 10 -15 z "},"K":{"ha":1606,"x_min":0,"x_max":0,"o":"m 493 0 l 558 413 l 917 0 l 1578 0 l 1072 554 l 1732 1033 l 1106 1033 l 599 668 l 657 1033 l 142 1033 l -22 0 z "},"L":{"ha":1276,"x_min":0,"x_max":0,"o":"m 142 1033 l -22 0 l 1192 0 l 1249 368 l 551 368 l 657 1033 z "},"M":{"ha":1882,"x_min":0,"x_max":0,"o":"m -22 0 l 490 0 l 571 511 l 764 0 l 1010 0 l 1353 511 l 1272 0 l 1785 0 l 1949 1033 l 1293 1033 l 986 574 l 813 1033 l 142 1033 z "},"N":{"ha":1636,"x_min":0,"x_max":0,"o":"m 142 1033 l -22 0 l 493 0 l 575 517 l 1022 0 l 1539 0 l 1703 1033 l 1188 1033 l 1114 564 l 713 1033 z "},"O":{"ha":1664,"x_min":0,"x_max":0,"o":"m 772 -21 l 842 -21 b 1668 478 1508 -21 1629 260 b 1678 592 1674 513 1678 558 b 938 1054 1678 797 1571 1054 l 869 1054 b 43 558 210 1054 76 781 b 35 450 38 521 35 481 b 772 -21 35 235 158 -21 z m 1144 551 b 1140 501 1144 538 1143 518 b 836 311 1125 408 1053 311 b 567 492 635 311 567 404 b 571 542 567 508 568 528 b 874 725 588 629 654 725 b 1144 551 1079 725 1144 638 z "},"P":{"ha":1557,"x_min":0,"x_max":0,"o":"m 493 0 l 538 282 l 1067 282 b 1592 711 1489 282 1592 485 b 1122 1033 1592 890 1488 1033 l 142 1033 l -22 0 z m 588 594 l 610 731 l 971 731 b 1054 671 1032 731 1054 708 b 951 594 1054 628 1028 594 z "},"Q":{"ha":1664,"x_min":0,"x_max":0,"o":"m 546 -215 l 1192 -215 l 1029 -12 b 1668 478 1532 36 1633 282 b 1678 592 1674 513 1678 558 b 938 1054 1678 797 1571 1054 l 869 1054 b 43 558 210 1054 78 782 b 35 450 38 522 35 479 b 579 -11 35 260 132 38 z m 1144 551 b 1140 501 1144 538 1143 518 b 836 311 1125 408 1053 311 b 567 492 635 311 567 404 b 571 542 567 508 568 528 b 874 725 588 629 654 725 b 1144 551 1079 725 1144 638 z "},"R":{"ha":1582,"x_min":0,"x_max":0,"o":"m 592 621 l 613 751 l 986 751 b 1072 694 1051 751 1072 728 b 972 621 1072 661 1053 621 z m 546 331 l 831 331 b 1001 157 975 331 1019 265 l 982 40 b 982 0 979 22 978 8 l 1514 0 l 1515 8 b 1513 104 1508 25 1503 53 l 1535 243 b 1338 513 1557 378 1475 475 b 1615 790 1474 536 1615 622 b 1254 1033 1615 968 1461 1033 l 142 1033 l -22 0 l 493 0 z "},"S":{"ha":1547,"x_min":0,"x_max":0,"o":"m 624 -21 l 801 -21 b 1531 313 1371 -21 1506 128 b 1535 385 1533 332 1535 358 b 1029 676 1535 572 1407 658 l 860 685 b 669 749 701 693 669 711 b 824 803 669 786 703 803 b 969 719 958 803 969 757 l 1563 719 b 942 1051 1576 860 1533 1051 l 769 1051 b 85 788 311 1051 126 969 b 76 719 81 769 76 740 b 547 400 76 560 167 422 l 718 390 b 907 314 886 381 907 354 b 747 240 907 281 882 240 b 596 351 601 240 596 307 l -8 351 b 624 -21 -22 222 7 -21 z "},"T":{"ha":1431,"x_min":0,"x_max":0,"o":"m 399 0 l 914 0 l 1021 678 l 1456 678 l 1513 1033 l 128 1033 l 71 678 l 506 678 z "},"U":{"ha":1621,"x_min":0,"x_max":0,"o":"m 63 586 b 781 -18 26 360 74 -18 l 847 -18 b 1625 586 1489 -18 1589 358 l 1696 1033 l 1179 1033 l 1113 613 b 821 371 1093 490 1033 371 l 818 371 b 583 613 594 371 564 490 l 650 1033 l 133 1033 z "},"V":{"ha":1613,"x_min":0,"x_max":0,"o":"m 411 0 l 1149 0 l 1739 1033 l 1194 1033 l 840 396 l 654 1033 l 82 1033 z "},"W":{"ha":2363,"x_min":0,"x_max":0,"o":"m 997 0 l 1217 575 l 1307 0 l 1997 0 l 2488 1033 l 1924 1033 l 1672 410 l 1601 1033 l 988 1033 l 744 426 l 663 1033 l 82 1033 l 301 0 z "},"X":{"ha":1638,"x_min":0,"x_max":0,"o":"m 544 0 l 819 322 l 1004 0 l 1601 0 l 1303 546 l 1722 1033 l 1129 1033 l 878 726 l 719 1033 l 106 1033 l 393 546 l -82 0 z "},"Y":{"ha":1607,"x_min":0,"x_max":0,"o":"m 490 0 l 1006 0 l 1061 360 l 1738 1033 l 1172 1033 l 860 721 l 650 1033 l 78 1033 l 547 367 z "},"Z":{"ha":1390,"x_min":0,"x_max":0,"o":"m 129 1033 l 76 697 l 674 697 l 1 250 l -39 0 l 1307 0 l 1363 351 l 763 351 l 1426 783 l 1467 1033 z "},"a":{"ha":1254,"x_min":0,"x_max":0,"o":"m 544 190 b 469 243 489 190 469 218 b 533 307 469 275 490 296 l 692 349 l 682 288 b 544 190 672 229 619 190 z m 314 -14 b 668 94 517 -14 622 54 b 781 0 679 40 708 0 l 1188 0 l 1226 246 l 1185 246 b 1171 269 1172 246 1168 251 l 1208 503 b 676 765 1226 618 1190 765 l 597 765 b 49 501 101 765 65 606 l 506 501 b 622 563 511 519 518 563 l 625 563 b 721 517 708 563 721 540 b 679 483 721 497 708 486 l 299 453 b 40 364 165 442 88 411 b -18 200 -4 319 -18 257 b 306 -14 -18 89 67 -14 z "},"b":{"ha":1326,"x_min":0,"x_max":0,"o":"m 136 1033 l -28 0 l 443 0 b 485 86 453 25 474 67 b 810 -6 521 61 618 -6 l 842 -6 b 1307 342 1178 -6 1276 169 b 1317 451 1313 374 1317 414 b 939 753 1317 601 1233 753 l 911 753 b 568 649 715 753 596 675 l 629 1033 z m 528 392 b 683 522 539 456 589 522 l 692 522 b 811 407 781 522 811 472 b 657 225 811 333 778 225 l 651 225 b 524 347 564 225 524 282 b 528 392 524 361 525 376 z "},"c":{"ha":1297,"x_min":0,"x_max":0,"o":"m 663 -21 b 1281 343 1218 -21 1264 233 l 781 343 b 638 215 774 308 743 215 l 629 215 b 515 335 539 215 515 274 b 668 536 515 421 542 536 l 676 536 b 792 418 790 536 792 443 l 1292 418 b 744 768 1310 529 1297 768 l 647 768 b 18 411 160 768 46 585 b 10 315 13 376 10 344 b 568 -21 10 169 86 -21 z "},"d":{"ha":1315,"x_min":0,"x_max":0,"o":"m 790 361 b 632 232 779 307 743 232 l 626 232 b 514 353 544 232 514 290 b 663 521 514 429 547 521 l 668 521 b 794 406 764 521 794 461 b 790 361 794 390 793 375 z m 894 1033 l 835 660 b 493 753 796 686 692 753 l 464 753 b 18 426 179 753 49 599 b 10 324 13 396 10 354 b 374 -6 10 153 111 -6 l 397 -6 b 746 99 608 -6 710 68 l 731 0 l 1224 0 l 1388 1033 z "},"e":{"ha":1293,"x_min":0,"x_max":0,"o":"m 806 482 l 515 482 b 671 565 526 525 558 565 b 806 482 778 565 803 528 z m 1267 286 l 779 286 b 628 210 775 271 751 210 b 490 332 507 210 485 281 l 1274 332 l 1278 361 b 704 768 1303 529 1275 768 l 644 768 b 15 406 106 768 33 542 b 11 336 13 383 11 360 b 590 -21 11 186 82 -21 l 651 -21 b 1267 286 1194 -21 1251 182 z "},"f":{"ha":821,"x_min":0,"x_max":0,"o":"m 906 1033 l 547 1033 b 232 808 350 1033 256 956 l 222 747 l 71 747 l 26 472 l 179 472 l 104 0 l 597 0 l 672 472 l 817 472 l 861 747 l 717 747 l 719 765 b 761 803 724 789 729 803 l 868 803 z "},"g":{"ha":1333,"x_min":0,"x_max":0,"o":"m 640 256 l 632 256 b 511 369 546 256 511 308 b 660 510 511 446 561 510 l 667 510 b 810 394 760 510 810 461 b 801 350 810 381 807 364 b 640 256 782 297 725 256 z m 493 0 l -1 0 b 525 -272 -12 -97 61 -272 l 646 -272 b 1258 100 1110 -272 1226 -97 l 1361 747 l 868 747 l 854 660 b 503 751 818 683 711 751 l 472 751 b 19 418 156 751 40 589 b 15 350 17 396 15 371 b 396 28 15 200 92 28 l 422 28 b 771 139 642 28 732 101 l 764 94 b 603 -47 750 8 700 -47 l 599 -47 b 493 0 511 -47 496 -19 z "},"h":{"ha":1321,"x_min":0,"x_max":0,"o":"m -28 0 l 465 0 l 518 333 b 671 478 531 413 574 478 b 789 335 774 478 801 413 l 736 0 l 1229 0 l 1304 472 b 985 764 1321 578 1276 764 l 976 764 b 561 604 738 764 590 633 l 629 1033 l 136 1033 z "},"i":{"ha":557,"x_min":0,"x_max":0,"o":"m 629 1033 l 136 1033 l 97 790 l 590 790 z m 583 747 l 90 747 l -28 0 l 465 0 z "},"j":{"ha":558,"x_min":0,"x_max":0,"o":"m 631 1033 l 138 1033 l 99 790 l 592 790 z m -111 -28 l -149 -261 l 260 -261 b 458 -54 368 -261 436 -192 l 585 747 l 92 747 l -25 13 b -72 -28 -29 -12 -33 -28 z "},"k":{"ha":1224,"x_min":0,"x_max":0,"o":"m 465 0 l 518 331 l 649 0 l 1190 0 l 1006 414 l 1263 747 l 746 747 l 543 492 l 629 1033 l 136 1033 l -28 0 z "},"l":{"ha":557,"x_min":0,"x_max":0,"o":"m 629 1033 l 136 1033 l -28 0 l 465 0 z "},"m":{"ha":2014,"x_min":0,"x_max":0,"o":"m 465 0 l 519 340 b 656 478 531 414 574 478 b 756 342 742 478 767 411 l 701 0 l 1194 0 l 1249 340 b 1383 478 1260 413 1301 478 b 1483 339 1468 478 1496 414 l 1429 0 l 1922 0 l 1997 472 b 1688 764 2014 581 1972 764 l 1681 764 b 1260 596 1467 764 1314 646 b 968 764 1231 681 1151 764 l 961 764 b 560 604 735 764 589 633 l 583 747 l 90 747 l -28 0 z "},"n":{"ha":1321,"x_min":0,"x_max":0,"o":"m -28 0 l 465 0 l 518 333 b 671 478 531 413 574 478 b 789 335 774 478 801 413 l 736 0 l 1229 0 l 1304 472 b 985 764 1322 586 1271 764 l 976 764 b 560 603 738 764 588 632 l 583 747 l 90 747 z "},"o":{"ha":1353,"x_min":0,"x_max":0,"o":"m 690 -21 b 1338 349 1261 -21 1321 218 b 1343 428 1342 382 1343 410 b 775 768 1343 564 1269 768 l 661 768 b 15 407 104 768 33 533 b 10 333 13 385 10 357 b 581 -21 10 197 83 -21 z m 690 535 l 693 535 b 842 410 811 535 842 468 b 661 214 842 350 815 214 l 658 214 b 514 349 544 214 514 286 b 690 535 514 413 539 535 z "},"p":{"ha":1328,"x_min":0,"x_max":0,"o":"m 686 521 l 694 521 b 808 406 781 521 808 463 b 654 224 808 326 768 224 l 646 224 b 524 349 554 224 524 289 b 528 390 524 361 525 376 b 686 521 540 458 592 521 z m 90 747 l -69 -261 l 424 -261 l 478 75 b 813 -6 499 60 622 -6 l 843 -6 b 1310 344 1189 -6 1285 185 b 1318 449 1315 381 1318 417 b 933 753 1318 592 1242 753 l 904 753 b 568 649 708 753 596 671 l 583 747 z "},"q":{"ha":1317,"x_min":0,"x_max":0,"o":"m 482 753 l 454 753 b 19 428 182 753 49 600 b 10 324 14 394 10 357 b 374 -6 10 142 114 -6 l 397 -6 b 749 99 601 -6 708 67 l 692 -261 l 1185 -261 l 1344 747 l 875 747 b 844 651 871 722 856 681 b 482 753 794 690 692 753 z m 632 232 l 626 232 b 514 356 550 232 514 286 b 664 521 514 433 554 521 l 669 521 b 794 407 763 521 794 461 b 790 361 794 392 793 379 b 632 232 779 308 742 232 z "},"r":{"ha":1206,"x_min":0,"x_max":0,"o":"m 521 351 b 631 483 535 449 571 483 b 707 381 697 483 715 432 l 694 303 l 1178 303 l 1199 431 b 911 764 1215 535 1210 764 l 894 764 b 558 599 707 764 597 647 l 583 747 l 90 747 l -28 0 l 465 0 z "},"s":{"ha":1189,"x_min":0,"x_max":0,"o":"m -21 256 b 475 -21 -33 150 14 -21 l 585 -21 b 1157 211 1054 -21 1133 81 b 1163 281 1161 235 1163 261 b 797 494 1163 407 1079 478 l 613 504 b 529 546 543 510 529 525 b 613 588 529 564 536 588 l 615 588 b 697 532 692 588 696 553 l 1179 532 b 689 768 1190 661 1122 768 l 583 768 b 47 594 214 768 86 713 b 38 529 42 578 38 550 b 364 296 38 414 107 313 l 551 285 b 639 233 624 281 639 263 b 558 183 639 207 618 183 l 556 183 b 475 256 492 183 475 224 z "},"t":{"ha":796,"x_min":0,"x_max":0,"o":"m 714 0 l 760 281 l 683 281 b 635 333 636 281 629 299 l 657 472 l 789 472 l 833 747 l 700 747 l 735 965 l 242 965 l 207 747 l 71 747 l 26 472 l 164 472 l 124 222 b 314 0 96 50 201 0 z "},"u":{"ha":1310,"x_min":0,"x_max":0,"o":"m 1336 747 l 843 747 l 790 411 b 639 269 778 331 732 269 b 531 413 540 269 518 335 l 583 747 l 90 747 l 15 274 b 331 -17 -1 169 46 -17 l 338 -17 b 749 143 574 -17 721 115 l 725 0 l 1218 0 z "},"v":{"ha":1257,"x_min":0,"x_max":0,"o":"m 229 0 l 950 0 l 1336 747 l 818 747 l 632 299 l 565 747 l 40 747 z "},"w":{"ha":1842,"x_min":0,"x_max":0,"o":"m 807 0 l 935 354 l 975 0 l 1567 0 l 1919 747 l 1429 747 l 1269 307 l 1240 747 l 743 747 l 588 307 l 554 747 l 42 747 l 197 0 z "},"x":{"ha":1288,"x_min":0,"x_max":0,"o":"m 468 0 l 619 225 l 718 0 l 1247 0 l 1050 396 l 1339 747 l 793 747 l 658 549 l 564 747 l 40 747 l 236 399 l -74 0 z "},"y":{"ha":1225,"x_min":0,"x_max":0,"o":"m 69 -261 l 581 -261 b 911 3 711 -261 807 -193 l 1304 747 l 811 747 l 638 325 l 554 747 l 40 747 l 288 75 b 303 15 299 44 303 28 b 264 -15 303 -4 289 -15 l 108 -15 z "},"z":{"ha":1085,"x_min":0,"x_max":0,"o":"m 1004 0 l 1047 272 l 604 272 l 1083 501 l 1122 747 l 79 747 l 39 490 l 500 490 l 0 246 l -39 0 z "},"‘":{"ha":510,"x_min":0,"x_max":0,"o":"m 233 1033 b 99 808 192 992 111 889 l 65 599 l 517 599 l 558 864 l 378 864 b 468 1033 392 908 433 985 z "},"’":{"ha":510,"x_min":0,"x_max":0,"o":"m 417 599 b 551 824 458 640 539 743 l 585 1033 l 133 1033 l 92 768 l 272 768 b 182 599 258 724 217 647 z "},"“":{"ha":1001,"x_min":0,"x_max":0,"o":"m 233 1033 b 99 808 192 992 111 889 l 65 599 l 517 599 l 558 864 l 378 864 b 468 1033 392 908 433 985 z m 725 1033 b 590 808 683 992 603 889 l 557 599 l 1008 599 l 1050 864 l 869 864 b 960 1033 883 908 925 985 z "},"”":{"ha":1001,"x_min":0,"x_max":0,"o":"m 417 599 b 551 824 458 640 539 743 l 585 1033 l 133 1033 l 92 768 l 272 768 b 182 599 258 724 217 647 z m 908 599 b 1043 824 950 640 1031 743 l 1076 1033 l 625 1033 l 583 768 l 764 768 b 674 599 750 724 708 647 z "}}}
